#!OML:ASF F:\VICON\USERDATA\INSTALL\Justin_Nancy\Justin_Nancy.ASF
:FULLY-SPECIFIED
:DEGREES
1
root -8.51403 17.5778 -35.3657 2.17989 -11.2656 -1.75424
lowerback 2.79961 -0.444642 -2.58747
upperback -0.806038 -0.578428 5.38484
thorax -2.32653 -0.216058 7.10335
lowerneck -4.28608 0.572245 -14.5031
upperneck 17.5665 1.32957 5.64611
head 5.89958 0.111368 4.28652
rclavicle 1.9953e-014 -2.22639e-014
rhumerus -36.3759 -13.2157 -73.5669
rradius 24.9917
rwrist 8.55342
rhand -14.7648 14.084
rfingers 7.12502
rthumb 11.3916 -15.5865
lclavicle 1.9953e-014 -2.22639e-014
lhumerus -35.7277 12.8709 84.4712
lradius 34.5396
lwrist -6.18068
lhand -15.0382 27.0506
lfingers 7.12502
lthumb 11.1279 56.7355
rfemur -14.8689 12.4645 26.4435
rtibia 25.6992
rfoot -7.68792 -3.83181
rtoes 3.12956
lfemur -21.6072 6.52366 -17.7129
ltibia 68.0162
lfoot 1.6686 -6.11712
ltoes -13.2132
2
root -8.51124 17.5795 -35.1303 1.85653 -10.378 -1.7421
lowerback 6.09491 1.0918 -2.82921
upperback -1.62815 1.48206 5.08317
thorax -5.34435 0.91885 6.7937
lowerneck -7.63316 -1.46082 -12.6199
upperneck 20.1011 -1.0666 4.88836
head 7.54595 -1.02353 3.6267
rclavicle 3.3048e-015 -4.92986e-014
rhumerus -37.6519 -16.0883 -72.1975
rradius 25.9681
rwrist 8.29502
rhand -14.0557 15.3208
rfingers 7.12502
rthumb 12.0754 -14.3108
lclavicle 3.3048e-015 -4.92986e-014
lhumerus -35.3615 8.04782 86.8241
lradius 33.6843
lwrist -6.3151
lhand -15.4433 28.7337
lfingers 7.12502
lthumb 10.7371 58.4393
rfemur -13.5963 11.6933 26.5759
rtibia 25.6914
rfoot -8.52052 -4.39421
rtoes 2.87804
lfemur -22.7164 5.67636 -17.7446
ltibia 67.7003
lfoot -0.234717 -3.8859
ltoes -14.8243
3
root -8.52205 17.5791 -34.9018 1.67775 -10.0569 -1.77669
lowerback 7.44201 -0.999864 -6.14245
upperback -3.18338 -1.46622 8.00733
thorax -7.26191 -0.201875 12.5104
lowerneck -4.43886 1.12268 -16.2019
upperneck 19.9021 2.68993 3.43901
head 6.60225 0.376786 3.9706
rclavicle -5.66536e-015 -4.77083e-014
rhumerus -37.6641 -4.44695 -72.7248
rradius 26.6761
rwrist 6.5202
rhand -13.8699 14.5865
rfingers 7.12502
rthumb 12.2545 -15.0345
lclavicle -5.66536e-015 -4.77083e-014
lhumerus -40.8605 16.6555 86.6523
lradius 34.1274
lwrist -8.44486
lhand -15.0884 29.1257
lfingers 7.12502
lthumb 11.0794 58.8132
rfemur -12.3955 11.3873 26.7513
rtibia 25.5645
rfoot -9.48261 -4.52955
rtoes 4.58099
lfemur -23.834 5.39549 -17.6908
ltibia 67.212
lfoot 0.00354926 -4.00108
ltoes -6.3092
4
root -8.53861 17.5756 -34.6755 1.75409 -10.497 -2.0948
lowerback 6.85957 0.581857 -3.85194
upperback -2.3105 0.787048 6.26434
thorax -6.45804 0.693208 8.78891
lowerneck -6.44774 -0.569845 -14.0249
upperneck 19.9736 0.278504 4.4274
head 7.18449 -0.530843 3.80715
rclavicle 2.77677e-014 4.29375e-014
rhumerus -36.9676 -10.0181 -73.4517
rradius 27.3842
rwrist 7.03767
rhand -14.4633 13.6105
rfingers 7.12502
rthumb 11.6824 -16.0438
lclavicle 2.77677e-014 4.29375e-014
lhumerus -38.2136 10.5755 87.4665
lradius 32.9499
lwrist -7.86157
lhand -16.0687 27.5628
lfingers 7.12502
lthumb 10.1339 57.2988
rfemur -11.5477 11.5784 27.199
rtibia 25.6603
rfoot -10.2262 -4.56825
rtoes 4.86381
lfemur -25.1266 5.92013 -17.3206
ltibia 66.6833
lfoot -0.763741 -2.89521
ltoes -1.53777
5
root -8.54415 17.5547 -34.4504 1.70384 -10.358 -2.52735
lowerback 6.59078 0.619814 -2.9633
upperback -2.13715 0.900897 6.0275
thorax -6.11226 0.689862 7.98009
lowerneck -5.9147 -0.589188 -13.7941
upperneck 19.3697 0.08444 4.70464
head 6.90483 -0.564935 3.83232
rclavicle 1.75179e-015 2.70347e-014
rhumerus -36.1952 -9.84187 -74.3084
rradius 27.8089
rwrist 6.86626
rhand -15.3732 12.8588
rfingers 7.12502
rthumb 10.8048 -16.8433
lclavicle 1.75179e-015 2.70347e-014
lhumerus -38.2332 9.83679 87.4083
lradius 32.6527
lwrist -8.07473
lhand -15.9032 28.2469
lfingers 7.12502
lthumb 10.2936 57.975
rfemur -10.7151 11.4921 27.7903
rtibia 25.9541
rfoot -10.5381 -5.03991
rtoes 1.27768
lfemur -26.4029 5.78568 -16.8488
ltibia 66.0983
lfoot -1.82072 -1.34842
ltoes 0.0511737
6
root -8.53426 17.5179 -34.2354 1.20287 -7.69252 -2.48174
lowerback 6.58472 0.124142 -1.27436
upperback -1.50393 0.307001 4.99679
thorax -5.31047 0.27731 5.93272
lowerneck -6.80911 -1.26513 -13.0975
upperneck 19.2402 -0.899725 5.22338
head 7.1039 -0.931273 3.81556
rclavicle -2.20651e-014 7.15625e-015
rhumerus -34.6822 -11.3205 -75.6483
rradius 28.2665
rwrist 6.66656
rhand -16.757 11.8427
rfingers 7.12502
rthumb 9.46983 -17.9245
lclavicle -2.20651e-014 7.15625e-015
lhumerus -36.8562 7.90595 87.1266
lradius 31.9152
lwrist -8.26798
lhand -16.2965 27.8328
lfingers 7.12502
lthumb 9.91407 57.5794
rfemur -9.4648 9.98077 28.0072
rtibia 26.2421
rfoot -11.6104 -6.56313
rtoes 0.376004
lfemur -27.6921 3.29324 -16.9005
ltibia 65.3816
lfoot -2.61879 -0.359759
ltoes 1.0263
7
root -8.53877 17.4568 -34.0474 0.563186 -2.52471 -2.56247
lowerback 7.28092 -2.62495 -1.29653
upperback -2.1037 -3.31632 5.64553
thorax -5.88697 -1.48549 7.09914
lowerneck -4.58613 0.00335724 -14.4835
upperneck 18.6113 0.686094 5.1447
head 6.36329 -0.272567 4.10741
rclavicle -7.10655e-015 -1.74931e-014
rhumerus -34.2846 -6.3604 -76.9671
rradius 28.8061
rwrist 5.69016
rhand -15.1354 12.0548
rfingers 7.12502
rthumb 11.0341 -17.6352
lclavicle -7.10655e-015 -1.74931e-014
lhumerus -39.1331 11.2494 86.4012
lradius 32.0373
lwrist -8.17231
lhand -16.7423 26.9357
lfingers 7.12502
lthumb 9.48404 56.7023
rfemur -8.05126 7.37606 28.6239
rtibia 26.5336
rfoot -13.4011 -9.48216
rtoes 3.10386
lfemur -29.3095 -1.10137 -16.6713
ltibia 64.5468
lfoot -3.11399 -0.0817837
ltoes 1.92076
8
root -8.54052 17.4277 -33.8125 0.472375 -2.67186 -3.11478
lowerback 6.09138 -1.48143 1.48483
upperback -0.585328 -1.71212 3.92878
thorax -3.94863 -0.841627 3.40037
lowerneck -7.15416 -1.53905 -12.4211
upperneck 18.6604 -1.46856 6.03479
head 7.01783 -1.0686 3.91812
rclavicle 1.38155e-014 -3.18055e-014
rhumerus -32.2318 -11.0742 -78.3633
rradius 29.4257
rwrist 6.07742
rhand -14.7595 11.2765
rfingers 7.12502
rthumb 11.3967 -18.3938
lclavicle 1.38155e-014 -3.18055e-014
lhumerus -36.0646 6.37262 86.3809
lradius 31.282
lwrist -7.66153
lhand -15.8733 27.8053
lfingers 7.12502
lthumb 10.3223 57.5319
rfemur -7.03563 7.53749 29.3685
rtibia 26.6208
rfoot -14.6673 -9.8134
rtoes 4.65711
lfemur -30.1622 -1.12124 -16.1211
ltibia 63.3405
lfoot -4.13272 1.11861
ltoes 2.67123
9
root -8.54735 17.402 -33.585 0.374095 -2.98393 -3.49567
lowerback 5.60592 -1.73677 2.02119
upperback -0.489866 -2.03912 3.9517
thorax -3.57887 -1.01704 3.13041
lowerneck -5.92416 -1.03998 -12.6904
upperneck 17.8798 -0.927691 6.19797
head 6.497 -0.810547 4.04291
rclavicle 1.66482e-015 1.66979e-014
rhumerus -31.6584 -9.00293 -79.4464
rradius 30.1902
rwrist 5.78596
rhand -14.5675 11.8314
rfingers 7.12502
rthumb 11.5818 -17.8286
lclavicle 1.66482e-015 1.66979e-014
lhumerus -36.7777 7.5234 85.8497
lradius 31.1402
lwrist -7.56887
lhand -15.026 29.4005
lfingers 7.12502
lthumb 11.1397 59.0848
rfemur -5.94007 7.53908 29.9096
rtibia 26.4947
rfoot -15.1955 -9.72645
rtoes 4.36358
lfemur -30.9015 -0.937427 -15.7215
ltibia 61.8286
lfoot -4.70332 1.95443
ltoes 3.24985
10
root -8.55582 17.3813 -33.3557 0.333951 -3.24495 -3.81383
lowerback 5.26013 -1.59027 2.71705
upperback -0.10758 -1.84035 3.69998
thorax -3.02626 -0.932033 2.43855
lowerneck -6.32552 -1.09596 -12.2901
upperneck 17.5262 -1.01121 6.29211
head 6.45762 -0.802705 3.99573
rclavicle -1.05107e-014 -7.15625e-015
rhumerus -30.5663 -8.44629 -80.3438
rradius 30.8944
rwrist 5.36139
rhand -14.6153 12.9152
rfingers 7.12502
rthumb 11.5357 -16.7473
lclavicle -1.05107e-014 -7.15625e-015
lhumerus -36.4199 7.23543 85.702
lradius 30.7081
lwrist -6.9745
lhand -15.6828 28.5355
lfingers 7.12502
lthumb 10.5061 58.2529
rfemur -4.84351 7.35173 30.3394
rtibia 26.1999
rfoot -15.5773 -9.55333
rtoes 3.0768
lfemur -31.6086 -0.748726 -15.3873
ltibia 60.0113
lfoot -5.60453 2.75324
ltoes 0.87848
11
root -8.56698 17.3548 -33.1352 0.544565 -3.19194 -4.05368
lowerback 5.21434 -1.32875 3.12079
upperback -0.0332426 -1.4759 3.57765
thorax -2.94496 -0.756566 2.05409
lowerneck -6.88214 -1.29842 -12.0326
upperneck 17.349 -1.27961 6.48463
head 6.52158 -0.88802 3.99408
rclavicle 8.72168e-015 -8.74653e-015
rhumerus -29.7008 -8.30989 -80.6774
rradius 31.5142
rwrist 5.06734
rhand -15.2625 12.4086
rfingers 7.12502
rthumb 10.9115 -17.2879
lclavicle 8.72168e-015 -8.74653e-015
lhumerus -36.4096 6.40792 86.0975
lradius 30.3869
lwrist -6.04609
lhand -16.5645 28.5328
lfingers 7.12502
lthumb 9.65555 58.2915
rfemur -4.09095 7.11406 30.6819
rtibia 25.9382
rfoot -15.9124 -9.60542
rtoes 2.56175
lfemur -32.584 -0.80088 -15.1148
ltibia 58.0232
lfoot -7.20798 3.72891
ltoes -4.14561
12
root -8.57982 17.316 -32.9159 0.776344 -3.40062 -4.2986
lowerback 5.73392 -0.955277 2.98214
upperback -0.260797 -0.939142 3.80611
thorax -3.47333 -0.488266 2.34301
lowerneck -7.51063 -1.5809 -12.0776
upperneck 17.5988 -1.587 6.49044
head 6.7439 -1.0343 3.98418
rclavicle 2.73329e-016 -2.06736e-014
rhumerus -29.3082 -7.68471 -80.5313
rradius 32.2762
rwrist 4.81844
rhand -16.7092 11.112
rfingers 7.12502
rthumb 9.51595 -18.6532
lclavicle 2.73329e-016 -2.06736e-014
lhumerus -36.8723 6.10282 86.7465
lradius 30.2174
lwrist -5.54952
lhand -15.6234 30.8448
lfingers 7.12502
lthumb 10.5634 60.5593
rfemur -3.29951 7.34308 31.0764
rtibia 25.6323
rfoot -16.5028 -9.78665
rtoes 3.19756
lfemur -33.3828 -0.602534 -14.8025
ltibia 55.8839
lfoot -8.66979 4.46464
ltoes -6.44099
